<svg id="svg" version="1.1" width="400" height="400" xmlns="http://www.w3.org/2000/svg" xmlns:xlink="http://www.w3.org/1999/xlink" style="display: block;"><g id="svgg"><path id="path0" d="" stroke="none" fill="#000000" fill-rule="evenodd"></path><path id="path1" d="M119.680 157.280 C 119.114 157.846,118.985 198.241,119.546 199.127 C 119.808 199.540,121.945 199.645,129.484 199.615 C 139.759 199.573,140.956 199.413,142.844 197.824 C 143.514 197.261,144.363 196.796,144.731 196.792 C 145.680 196.780,150.000 192.284,150.000 191.308 C 150.000 190.862,150.298 190.251,150.662 189.949 C 152.818 188.161,153.386 170.364,151.381 167.410 C 150.820 166.584,150.259 165.397,150.135 164.773 C 149.762 162.908,146.896 160.203,143.411 158.426 L 140.222 156.800 130.191 156.800 C 122.922 156.800,120.028 156.932,119.680 157.280 M160.229 157.429 C 159.326 158.331,159.268 198.426,160.167 199.173 C 161.037 199.894,185.598 199.773,186.327 199.044 C 187.251 198.120,187.391 195.449,186.559 194.616 C 185.890 193.948,185.185 193.906,177.704 194.093 L 169.576 194.296 168.788 193.294 C 167.591 191.772,167.615 183.397,168.822 181.863 L 169.643 180.819 176.520 180.709 L 183.397 180.600 183.758 178.889 C 184.007 177.705,183.971 176.855,183.640 176.129 L 183.162 175.079 176.422 175.307 C 167.640 175.604,168.000 175.872,168.000 169.038 C 168.000 164.656,168.092 163.991,168.829 163.054 L 169.658 162.000 177.780 162.000 C 186.740 162.000,186.652 162.024,187.071 159.439 C 187.508 156.750,187.763 156.800,173.580 156.800 C 162.547 156.800,160.774 156.883,160.229 157.429 M194.629 157.429 C 193.686 158.371,193.672 198.430,194.615 199.212 C 195.338 199.812,201.121 199.763,201.860 199.150 C 202.194 198.873,202.371 195.699,202.466 188.279 C 202.588 178.750,202.672 177.657,203.400 176.222 C 204.909 173.245,206.012 174.267,207.019 179.572 C 207.366 181.406,207.907 183.296,208.219 183.773 C 208.532 184.250,209.162 186.162,209.620 188.020 C 210.078 189.879,210.884 192.030,211.410 192.800 C 211.937 193.570,212.576 195.190,212.830 196.400 C 213.515 199.653,213.652 199.745,217.364 199.459 C 220.927 199.184,221.019 199.109,221.387 196.170 C 221.550 194.863,222.086 193.403,222.798 192.329 C 223.458 191.332,224.226 189.321,224.605 187.598 C 224.968 185.949,225.616 184.103,226.047 183.497 C 226.477 182.890,227.197 180.910,227.647 179.097 C 228.625 175.155,229.370 174.068,230.433 175.030 C 231.847 176.309,232.136 179.216,231.849 189.226 C 231.610 197.538,231.652 198.746,232.203 199.202 C 232.995 199.860,238.791 199.759,239.480 199.076 C 240.007 198.553,240.340 158.074,239.824 157.239 C 239.423 156.589,229.425 156.645,228.888 157.300 C 228.663 157.575,228.285 158.525,228.048 159.411 C 227.811 160.296,227.174 161.622,226.632 162.357 C 226.018 163.188,225.542 164.522,225.372 165.886 C 225.221 167.092,224.592 169.026,223.974 170.185 C 223.356 171.343,222.555 173.440,222.195 174.845 C 221.835 176.250,221.199 178.120,220.783 179.000 C 220.367 179.880,219.838 181.348,219.608 182.262 C 219.019 184.602,217.870 185.931,216.925 185.367 C 215.810 184.700,212.959 178.928,212.200 175.800 C 211.826 174.260,211.175 172.508,210.753 171.906 C 209.688 170.389,209.278 169.191,208.800 166.198 C 208.556 164.670,207.982 163.020,207.394 162.153 C 206.847 161.347,206.400 160.112,206.400 159.406 C 206.400 157.145,205.566 156.800,200.097 156.800 C 196.230 156.800,195.131 156.926,194.629 157.429 M257.400 157.395 C 253.667 159.264,251.376 161.113,250.400 163.042 C 249.850 164.130,248.950 165.645,248.400 166.410 L 247.400 167.800 247.400 178.218 C 247.400 187.991,247.449 188.705,248.200 189.766 C 248.640 190.388,249.548 191.910,250.218 193.149 C 251.216 194.992,251.842 195.617,253.677 196.600 C 254.909 197.260,256.308 198.154,256.786 198.587 C 258.496 200.135,270.197 199.933,271.534 198.332 C 271.900 197.894,272.830 197.207,273.600 196.807 C 275.693 195.717,276.580 194.810,277.711 192.600 C 278.273 191.500,279.093 190.300,279.531 189.934 C 281.226 188.520,281.397 168.515,279.729 166.732 C 279.250 166.219,278.390 164.720,277.819 163.400 C 276.980 161.464,276.452 160.817,275.090 160.056 C 274.160 159.537,272.696 158.637,271.835 158.056 C 269.875 156.733,259.657 156.265,257.400 157.395 M137.403 162.746 C 138.896 163.424,141.600 166.010,141.600 166.759 C 141.600 166.941,142.150 167.782,142.822 168.627 L 144.044 170.165 143.922 178.457 C 143.801 186.705,143.795 186.755,142.781 187.875 C 142.220 188.494,141.533 189.450,141.253 190.000 C 139.640 193.172,130.561 195.761,128.451 193.651 C 127.158 192.358,127.112 164.088,128.400 162.800 C 129.500 161.700,135.028 161.667,137.403 162.746 M269.394 165.016 L 271.677 167.400 272.109 171.619 C 272.413 174.578,272.420 177.798,272.133 182.403 L 271.725 188.969 269.575 190.895 C 266.349 193.784,262.067 194.463,260.184 192.382 C 259.795 191.952,259.268 191.600,259.013 191.600 C 256.264 191.600,255.219 185.934,255.847 174.427 L 256.241 167.201 258.283 165.201 C 262.235 161.332,265.808 161.272,269.394 165.016 " stroke="none" fill="#ffffff" fill-rule="evenodd"></path><path id="path2" d="M111.992 15.410 C 111.714 15.745,111.602 16.135,111.743 16.276 C 111.884 16.418,112.000 16.313,112.000 16.043 C 112.000 15.773,112.208 15.681,112.462 15.838 C 112.735 16.007,112.816 15.949,112.659 15.696 C 112.514 15.461,112.621 15.177,112.898 15.066 C 113.211 14.940,113.230 14.851,112.949 14.832 C 112.701 14.814,112.270 15.074,111.992 15.410 M107.400 17.626 C 106.142 18.002,105.200 18.975,105.200 19.900 C 105.200 20.201,105.383 20.334,105.607 20.196 C 105.830 20.058,105.932 19.814,105.833 19.653 C 105.517 19.142,106.227 18.387,107.200 18.200 C 107.718 18.100,108.325 17.835,108.551 17.609 C 109.016 17.144,109.020 17.144,107.400 17.626 M101.400 20.688 C 99.959 21.039,98.478 22.800,99.624 22.800 C 99.857 22.800,99.944 22.632,99.817 22.428 C 99.571 22.029,100.249 21.476,101.152 21.339 C 101.456 21.293,101.897 21.063,102.132 20.828 C 102.368 20.592,102.479 20.421,102.380 20.446 C 102.281 20.472,101.840 20.581,101.400 20.688 M300.338 21.800 C 300.549 22.240,300.754 22.780,300.794 23.000 C 300.916 23.671,301.200 23.771,301.200 23.143 C 301.200 22.819,300.920 22.204,300.578 21.776 C 299.966 21.013,299.962 21.013,300.338 21.800 M331.102 43.066 C 331.379 43.177,331.486 43.461,331.341 43.696 C 331.184 43.949,331.265 44.007,331.538 43.838 C 331.792 43.681,332.000 43.773,332.000 44.043 C 332.000 44.313,332.116 44.418,332.257 44.276 C 332.593 43.940,331.634 42.791,331.051 42.832 C 330.770 42.851,330.789 42.940,331.102 43.066 M338.928 50.995 C 338.975 51.462,339.338 51.825,339.805 51.872 C 340.381 51.932,340.414 51.899,339.925 51.752 C 339.553 51.642,339.158 51.247,339.048 50.875 C 338.901 50.386,338.868 50.419,338.928 50.995 M355.004 68.007 C 355.142 68.230,355.408 68.318,355.595 68.203 C 356.039 67.929,357.271 69.161,356.997 69.605 C 356.882 69.792,356.970 70.058,357.193 70.196 C 357.931 70.652,357.616 69.216,356.800 68.400 C 355.984 67.584,354.548 67.269,355.004 68.007 M74.287 86.369 L 72.600 87.943 72.600 179.687 L 72.600 271.432 73.874 273.041 C 76.174 275.945,72.918 275.761,126.188 275.992 L 174.177 276.200 174.682 277.200 C 175.361 278.542,175.329 286.301,174.632 289.400 C 174.335 290.720,173.793 292.880,173.428 294.200 C 173.062 295.520,172.653 297.843,172.518 299.363 C 172.135 303.688,172.339 303.600,162.680 303.600 C 153.129 303.600,153.600 303.381,153.600 307.818 C 153.600 313.638,149.636 313.200,202.284 313.200 C 244.395 313.200,246.304 313.169,246.938 312.469 C 247.722 311.602,247.808 309.021,247.131 306.646 C 246.243 303.529,246.469 303.600,237.367 303.600 L 229.258 303.600 228.488 302.621 C 227.941 301.925,227.651 300.736,227.489 298.521 C 227.364 296.804,226.878 294.230,226.410 292.800 C 224.853 288.045,224.614 277.270,226.045 276.364 C 226.356 276.167,248.079 276.006,275.400 275.997 C 322.420 275.983,324.261 275.955,325.869 275.225 C 329.336 273.650,328.985 283.649,329.118 182.818 C 329.249 83.465,329.420 89.839,326.552 86.800 L 324.854 85.000 200.413 84.898 L 75.973 84.796 74.287 86.369 M21.518 99.900 C 20.821 100.706,20.200 102.760,20.850 102.110 C 21.073 101.887,21.293 101.456,21.339 101.152 C 21.476 100.249,22.029 99.571,22.428 99.817 C 22.632 99.944,22.800 99.857,22.800 99.624 C 22.800 98.985,22.198 99.114,21.518 99.900 M378.108 99.637 C 378.498 99.864,378.712 100.218,378.585 100.425 C 378.457 100.631,378.543 100.800,378.776 100.800 C 379.009 100.800,379.200 100.656,379.200 100.480 C 379.200 100.015,378.310 99.198,377.820 99.212 C 377.589 99.219,377.719 99.410,378.108 99.637 M18.675 105.700 C 18.302 105.975,17.821 106.818,17.606 107.573 C 17.343 108.494,17.347 108.813,17.616 108.544 C 17.838 108.322,18.100 107.718,18.200 107.200 C 18.387 106.227,19.142 105.517,19.653 105.833 C 19.814 105.932,20.058 105.830,20.196 105.607 C 20.549 105.035,19.489 105.100,18.675 105.700 M15.192 112.210 C 14.914 112.545,14.802 112.935,14.943 113.076 C 15.084 113.218,15.200 113.113,15.200 112.843 C 15.200 112.573,15.408 112.481,15.662 112.638 C 15.935 112.807,16.016 112.749,15.859 112.496 C 15.714 112.261,15.821 111.977,16.098 111.866 C 16.411 111.740,16.430 111.651,16.149 111.632 C 15.901 111.614,15.470 111.874,15.192 112.210 M143.200 157.083 C 143.970 157.569,145.140 158.226,145.800 158.544 C 148.401 159.796,152.981 166.058,153.413 168.954 C 153.922 172.360,153.443 188.525,152.800 189.651 C 150.207 194.195,147.923 196.661,144.140 199.000 L 142.200 200.200 131.274 200.329 C 121.800 200.441,120.218 200.373,119.374 199.820 L 118.400 199.182 118.400 178.391 C 118.400 157.896,118.412 157.588,119.228 156.772 C 120.535 155.465,141.058 155.732,143.200 157.083 M187.200 156.800 C 188.470 158.070,188.324 161.287,186.946 162.371 C 185.961 163.146,185.378 163.200,178.026 163.200 C 168.514 163.200,169.200 162.749,169.200 169.000 C 169.200 175.190,168.693 174.800,176.749 174.800 C 184.527 174.800,184.800 174.913,184.800 178.136 C 184.800 181.754,184.279 182.000,176.610 182.000 C 168.731 182.000,169.200 181.643,169.200 187.631 C 169.200 193.773,168.555 193.366,178.561 193.538 C 187.962 193.700,188.000 193.714,188.000 197.039 C 188.000 200.486,188.377 200.400,173.340 200.400 C 162.162 200.400,160.374 200.317,159.829 199.771 C 158.846 198.789,158.878 157.819,159.862 156.731 C 160.932 155.549,186.012 155.612,187.200 156.800 M205.583 156.391 C 206.779 157.031,208.787 161.039,209.652 164.513 C 210.096 166.299,210.883 168.489,211.400 169.380 C 211.917 170.271,212.465 171.720,212.618 172.600 C 212.771 173.480,213.520 175.533,214.283 177.163 C 215.046 178.793,215.762 180.686,215.873 181.370 C 216.407 184.663,217.835 184.579,218.764 181.200 C 219.036 180.210,219.698 178.544,220.235 177.497 C 220.771 176.451,221.457 174.539,221.757 173.250 C 222.058 171.961,222.759 170.117,223.316 169.153 C 223.872 168.189,224.540 166.347,224.800 165.059 C 225.303 162.572,227.746 157.326,228.781 156.513 C 229.192 156.189,231.114 156.021,234.500 156.013 C 241.977 155.994,241.200 153.399,241.200 178.377 L 241.200 199.155 240.311 199.777 C 239.672 200.225,238.444 200.400,235.940 200.400 C 231.265 200.400,231.207 200.332,231.176 194.871 C 231.081 177.667,230.311 173.927,228.403 181.390 C 227.979 183.047,227.168 185.194,226.602 186.161 C 226.035 187.128,225.402 188.956,225.196 190.223 C 224.989 191.498,224.379 193.167,223.829 193.963 C 223.283 194.753,222.722 196.122,222.582 197.005 C 222.136 199.821,221.617 200.181,217.776 200.341 C 213.511 200.519,212.573 200.027,212.180 197.408 C 212.031 196.413,211.400 194.831,210.777 193.890 C 210.090 192.853,209.392 190.962,209.004 189.082 C 208.652 187.377,207.943 185.363,207.429 184.605 C 206.915 183.847,206.374 182.546,206.227 181.714 C 204.776 173.488,203.600 177.034,203.600 189.637 C 203.600 199.019,203.587 199.164,202.711 199.777 C 201.446 200.663,195.116 200.659,194.229 199.771 C 193.246 198.789,193.278 157.819,194.262 156.731 C 195.012 155.903,204.157 155.627,205.583 156.391 M271.800 156.909 C 272.460 157.295,273.353 157.833,273.785 158.105 C 274.217 158.377,275.249 159.006,276.079 159.501 C 277.069 160.093,277.948 161.113,278.637 162.473 C 279.214 163.611,279.938 164.795,280.246 165.103 C 281.463 166.320,281.675 167.540,281.889 174.536 C 282.182 184.143,281.811 189.078,280.666 190.807 C 280.190 191.527,279.260 193.012,278.600 194.108 C 277.761 195.501,276.508 196.716,274.431 198.150 L 271.461 200.200 264.231 200.200 L 257.000 200.200 253.909 198.200 C 251.198 196.446,250.686 195.917,249.739 193.900 C 249.145 192.635,248.517 191.600,248.344 191.600 C 247.247 191.600,245.971 184.521,246.470 181.200 C 246.619 180.210,246.754 176.605,246.770 173.189 C 246.800 167.047,247.051 165.782,248.436 164.800 C 248.591 164.690,249.196 163.588,249.781 162.351 C 250.669 160.475,251.189 159.917,252.923 158.983 C 254.065 158.367,255.096 157.722,255.213 157.549 C 256.358 155.859,269.157 155.366,271.800 156.909 M129.100 163.426 C 128.373 164.171,128.759 192.808,129.500 193.113 C 130.533 193.537,134.447 193.358,135.600 192.835 C 138.224 191.644,139.850 190.480,140.679 189.200 C 141.178 188.430,141.745 187.609,141.939 187.375 C 143.256 185.788,143.400 184.883,143.398 178.200 C 143.396 171.510,143.241 170.542,141.922 169.025 C 141.719 168.791,141.202 168.009,140.774 167.287 C 140.346 166.564,139.681 165.863,139.298 165.727 C 138.914 165.592,137.982 165.024,137.228 164.465 C 135.826 163.427,129.844 162.662,129.100 163.426 M262.131 164.518 C 257.543 166.942,257.109 168.162,257.046 178.800 C 256.989 188.508,257.471 189.725,262.278 192.004 C 264.586 193.099,266.637 192.468,269.107 189.905 C 272.651 186.225,272.603 169.996,269.038 166.675 C 265.832 163.688,264.493 163.270,262.131 164.518 M385.356 285.670 C 385.012 286.679,384.927 287.002,384.850 287.573 C 384.822 287.778,384.426 288.065,383.970 288.210 C 383.513 288.354,383.228 288.561,383.336 288.669 C 383.832 289.166,385.205 287.845,385.572 286.518 C 386.024 284.880,385.854 284.210,385.356 285.670 M382.000 293.557 C 382.000 293.827,381.792 293.919,381.538 293.762 C 381.265 293.593,381.184 293.651,381.341 293.904 C 381.486 294.139,381.379 294.423,381.102 294.534 C 380.789 294.660,380.770 294.749,381.051 294.768 C 381.634 294.809,382.593 293.660,382.257 293.324 C 382.116 293.182,382.000 293.287,382.000 293.557 M21.776 300.578 C 22.204 300.920,22.819 301.200,23.143 301.200 C 23.771 301.200,23.671 300.916,23.000 300.794 C 22.780 300.754,22.240 300.549,21.800 300.338 C 21.013 299.962,21.013 299.966,21.776 300.578 M42.832 331.051 C 42.791 331.634,43.940 332.593,44.276 332.257 C 44.418 332.116,44.313 332.000,44.043 332.000 C 43.773 332.000,43.681 331.792,43.838 331.538 C 44.007 331.265,43.949 331.184,43.696 331.341 C 43.461 331.486,43.177 331.379,43.066 331.102 C 42.940 330.789,42.851 330.770,42.832 331.051 M351.338 336.217 C 351.208 336.557,351.213 336.947,351.351 337.084 C 351.488 337.221,351.600 337.047,351.600 336.696 C 351.600 336.345,351.915 335.976,352.300 335.876 C 352.956 335.704,352.955 335.690,352.287 335.646 C 351.896 335.621,351.468 335.878,351.338 336.217 M50.875 339.048 C 51.247 339.158,51.642 339.553,51.752 339.925 C 51.899 340.414,51.932 340.381,51.872 339.805 C 51.825 339.338,51.462 338.975,50.995 338.928 C 50.419 338.868,50.386 338.901,50.875 339.048 M335.738 351.817 C 335.608 352.157,335.613 352.547,335.751 352.684 C 335.888 352.821,336.000 352.647,336.000 352.296 C 336.000 351.945,336.315 351.576,336.700 351.476 C 337.356 351.304,337.355 351.290,336.687 351.246 C 336.296 351.221,335.868 351.478,335.738 351.817 M67.600 355.376 C 67.600 355.719,67.960 356.360,68.400 356.800 C 69.216 357.616,70.652 357.931,70.196 357.193 C 70.058 356.970,69.792 356.882,69.605 356.997 C 69.161 357.271,67.929 356.039,68.203 355.595 C 68.318 355.408,68.230 355.142,68.007 355.004 C 67.783 354.866,67.600 355.033,67.600 355.376 M99.212 377.820 C 99.198 378.310,100.015 379.200,100.480 379.200 C 100.656 379.200,100.800 379.009,100.800 378.776 C 100.800 378.543,100.631 378.457,100.425 378.585 C 100.218 378.712,99.864 378.498,99.637 378.108 C 99.410 377.719,99.219 377.589,99.212 377.820 M294.400 381.157 C 294.400 381.427,294.192 381.519,293.938 381.362 C 293.665 381.193,293.584 381.251,293.741 381.504 C 293.886 381.739,293.779 382.023,293.502 382.134 C 293.189 382.260,293.170 382.349,293.451 382.368 C 294.034 382.409,294.993 381.260,294.657 380.924 C 294.516 380.782,294.400 380.887,294.400 381.157 M288.150 383.519 C 288.471 384.039,287.805 384.806,286.879 384.985 C 286.405 385.076,285.698 385.355,285.308 385.606 C 284.640 386.035,284.642 386.047,285.333 385.830 C 285.736 385.704,286.321 385.600,286.633 385.600 C 287.282 385.600,288.800 384.199,288.800 383.600 C 288.800 383.380,288.609 383.200,288.376 383.200 C 288.143 383.200,288.042 383.344,288.150 383.519 " stroke="none" fill="#ff666b" fill-rule="evenodd"></path><path id="path3" d="M161.600 0.800 C 161.600 1.553,161.324 1.602,156.900 1.627 C 149.478 1.670,148.820 1.854,148.806 3.900 C 148.800 4.769,148.667 4.801,144.900 4.831 C 142.755 4.847,140.730 4.917,140.400 4.986 C 140.070 5.054,139.198 5.207,138.462 5.326 C 136.770 5.599,136.672 5.712,136.431 7.645 C 136.414 7.781,134.735 7.996,132.700 8.125 C 128.297 8.403,127.402 8.557,127.394 9.038 C 127.391 9.237,127.245 9.625,127.070 9.900 C 126.896 10.175,126.864 10.580,127.000 10.800 C 127.202 11.127,122.902 11.474,121.491 11.244 C 121.114 11.183,120.372 13.040,120.505 13.714 C 120.571 14.054,119.669 14.235,117.500 14.317 C 115.742 14.383,114.400 14.610,114.400 14.840 C 114.400 15.064,114.224 15.138,114.008 15.005 C 113.424 14.644,112.090 15.486,111.800 16.400 C 111.615 16.983,111.195 17.200,110.253 17.200 C 109.542 17.200,108.776 17.384,108.551 17.609 C 108.325 17.835,107.718 18.100,107.200 18.200 C 106.204 18.392,105.519 19.145,105.852 19.684 C 106.087 20.065,105.447 20.319,103.800 20.500 C 103.140 20.573,102.195 20.856,101.700 21.130 C 101.205 21.404,100.800 21.510,100.800 21.365 C 100.800 21.220,100.526 21.330,100.190 21.608 C 99.855 21.886,99.672 22.205,99.783 22.316 C 100.078 22.611,98.355 24.019,97.982 23.789 C 97.121 23.257,95.600 24.407,95.600 25.590 C 95.600 26.716,95.496 26.802,94.100 26.830 C 90.784 26.895,89.600 27.479,89.600 29.049 C 89.600 29.892,89.418 30.000,88.000 30.000 C 87.120 30.000,86.377 30.180,86.350 30.400 C 86.323 30.620,86.255 30.980,86.200 31.200 C 86.145 31.420,86.078 31.951,86.050 32.381 C 86.007 33.053,85.652 33.178,83.500 33.281 C 81.108 33.395,80.975 33.456,80.428 34.700 C 80.074 35.505,79.568 36.000,79.102 36.000 C 77.685 36.000,76.800 36.775,76.800 38.014 C 76.800 39.003,76.639 39.200,75.829 39.200 C 74.586 39.200,73.600 40.186,73.600 41.429 C 73.600 42.292,73.426 42.400,72.029 42.400 C 71.065 42.400,70.186 42.671,69.757 43.100 C 69.372 43.485,68.957 43.710,68.834 43.600 C 68.711 43.490,68.374 43.895,68.084 44.500 C 67.727 45.243,67.248 45.600,66.607 45.600 C 65.384 45.600,64.400 46.594,64.400 47.829 C 64.400 48.567,64.185 48.801,63.500 48.806 C 62.249 48.815,61.612 49.298,61.400 50.400 C 61.170 51.596,60.841 51.900,59.600 52.066 C 58.798 52.173,58.575 52.458,58.475 53.500 C 58.406 54.215,58.136 54.813,57.875 54.830 C 55.589 54.973,55.297 55.153,55.039 56.577 C 54.801 57.884,54.212 58.385,52.900 58.394 C 52.039 58.400,51.825 58.889,51.893 60.700 C 51.903 60.975,51.706 61.214,51.456 61.231 C 49.482 61.363,48.817 61.933,48.806 63.500 C 48.801 64.185,48.567 64.400,47.829 64.400 C 46.594 64.400,45.600 65.384,45.600 66.607 C 45.600 67.234,45.242 67.733,44.544 68.078 C 43.964 68.365,43.482 68.780,43.473 69.000 C 43.464 69.220,43.219 69.638,42.929 69.929 C 42.638 70.219,42.400 71.164,42.400 72.029 C 42.400 73.317,42.256 73.609,41.600 73.650 C 39.715 73.768,39.200 74.192,39.200 75.624 C 39.200 76.661,39.060 76.800,38.014 76.800 C 36.756 76.800,36.000 77.688,36.000 79.166 C 36.000 79.712,35.657 80.071,34.971 80.243 C 33.792 80.539,33.371 81.452,33.246 83.988 C 33.140 86.123,33.237 86.045,30.300 86.367 C 30.135 86.385,30.000 87.120,30.000 88.000 C 30.000 89.418,29.892 89.600,29.049 89.600 C 27.681 89.600,27.154 90.459,26.914 93.086 C 26.664 95.819,26.803 95.576,25.423 95.690 C 24.345 95.779,23.318 97.219,23.789 97.982 C 23.896 98.155,23.627 98.708,23.192 99.210 C 22.756 99.712,22.400 99.983,22.400 99.812 C 22.400 99.642,22.126 99.730,21.790 100.008 C 21.455 100.286,21.269 100.602,21.376 100.710 C 21.484 100.817,21.360 101.287,21.102 101.753 C 20.844 102.219,20.573 103.140,20.500 103.800 C 20.319 105.447,20.065 106.087,19.684 105.852 C 19.145 105.519,18.392 106.204,18.200 107.200 C 18.100 107.718,17.835 108.325,17.609 108.551 C 17.384 108.776,17.200 109.542,17.200 110.253 C 17.200 111.195,16.983 111.615,16.400 111.800 C 15.486 112.090,14.644 113.424,15.005 114.008 C 15.138 114.224,15.064 114.400,14.840 114.400 C 14.610 114.400,14.383 115.742,14.317 117.500 C 14.235 119.669,14.054 120.571,13.714 120.505 C 13.040 120.372,11.183 121.114,11.244 121.491 C 11.484 122.961,11.127 127.202,10.782 126.989 C 10.553 126.847,10.075 126.972,9.721 127.266 C 9.367 127.560,8.987 127.710,8.877 127.600 C 8.576 127.300,8.384 128.603,8.125 132.700 C 7.996 134.735,7.781 136.414,7.645 136.431 C 5.712 136.672,5.599 136.770,5.326 138.462 C 5.207 139.198,5.054 140.070,4.986 140.400 C 4.917 140.730,4.847 142.755,4.831 144.900 C 4.801 148.667,4.769 148.800,3.900 148.806 C 1.854 148.820,1.670 149.478,1.627 156.900 C 1.602 161.324,1.553 161.600,0.800 161.600 C 0.006 161.600,0.000 161.867,0.000 200.200 C 0.000 238.533,0.006 238.800,0.800 238.800 C 1.504 238.800,2.102 245.875,1.652 248.886 C 1.503 249.883,2.467 251.113,3.569 251.334 L 4.800 251.580 4.823 255.690 C 4.857 261.741,5.128 262.879,6.701 263.572 C 7.891 264.096,8.001 264.298,8.010 265.972 C 8.038 271.314,8.623 273.200,10.249 273.200 C 11.157 273.200,11.200 273.323,11.200 275.920 C 11.200 278.911,11.581 279.600,13.239 279.600 C 14.316 279.600,14.318 279.607,14.459 283.015 C 14.553 285.303,14.776 286.538,15.134 286.759 C 15.428 286.941,15.628 287.249,15.580 287.445 C 15.531 287.640,15.875 287.978,16.345 288.195 C 16.870 288.437,17.212 288.978,17.231 289.595 C 17.293 291.652,18.248 294.097,19.000 294.127 C 19.718 294.155,20.400 295.122,20.400 296.112 C 20.400 298.294,21.943 301.130,22.831 300.581 C 23.259 300.317,23.521 300.817,23.805 302.434 C 24.092 304.071,24.474 304.510,25.686 304.597 C 26.471 304.653,26.616 304.911,26.713 306.431 C 26.775 307.404,26.939 308.470,27.078 308.800 C 27.217 309.130,27.346 309.535,27.365 309.700 C 27.384 309.865,27.580 310.015,27.800 310.034 C 28.020 310.053,28.417 310.248,28.682 310.468 C 28.948 310.689,29.353 310.753,29.582 310.611 C 29.841 310.451,30.000 310.865,30.000 311.696 C 30.000 313.317,30.601 314.000,32.025 314.000 C 33.049 314.000,33.099 314.102,33.301 316.622 C 33.536 319.554,33.537 319.557,34.800 319.800 C 35.952 320.022,35.913 319.971,36.200 321.600 C 36.494 323.267,36.597 323.342,38.900 323.570 C 39.065 323.587,39.200 323.945,39.200 324.367 C 39.200 325.897,39.656 326.400,41.043 326.400 C 42.360 326.400,42.400 326.448,42.400 328.000 C 42.400 328.880,42.574 329.600,42.787 329.600 C 43.001 329.600,43.077 329.856,42.957 330.169 C 42.673 330.908,44.292 332.527,45.031 332.243 C 45.497 332.065,45.882 333.183,45.532 333.700 C 45.210 334.177,46.609 335.600,47.400 335.600 C 47.962 335.600,48.552 335.937,48.800 336.400 C 49.035 336.840,49.125 337.200,49.000 337.200 C 48.212 337.200,49.807 338.771,50.700 338.873 C 51.564 338.973,51.827 339.236,51.927 340.100 C 52.068 341.328,52.943 342.000,54.400 342.000 C 54.620 342.000,54.800 342.416,54.800 342.924 C 54.800 344.254,55.621 345.132,57.000 345.275 C 58.001 345.379,58.223 345.599,58.336 346.599 C 58.486 347.917,58.976 348.385,60.217 348.394 C 60.792 348.398,61.148 348.786,61.417 349.700 C 61.713 350.703,62.051 351.029,62.900 351.127 C 63.793 351.229,65.388 352.800,64.600 352.800 C 64.475 352.800,64.565 353.160,64.800 353.600 C 65.035 354.040,65.627 354.403,66.114 354.406 C 67.282 354.414,68.120 354.973,68.245 355.828 C 68.354 356.569,69.185 357.256,69.636 356.978 C 69.786 356.885,70.132 357.077,70.404 357.404 C 70.676 357.732,71.506 358.000,72.249 358.000 C 73.314 358.000,73.600 358.162,73.600 358.767 C 73.600 360.289,74.057 360.800,75.419 360.800 C 76.670 360.800,76.759 360.892,76.876 362.300 C 76.996 363.757,77.049 363.804,78.709 363.923 C 79.703 363.995,80.316 364.212,80.175 364.441 C 80.041 364.658,80.111 365.052,80.332 365.318 C 80.552 365.583,80.792 365.976,80.866 366.191 C 81.012 366.618,81.272 366.688,84.100 367.061 C 85.740 367.277,86.000 367.437,86.000 368.227 C 86.000 369.483,87.025 370.400,88.429 370.400 C 89.073 370.400,89.614 370.535,89.631 370.700 C 89.854 372.891,90.134 373.074,93.900 373.492 C 95.327 373.650,95.600 373.822,95.600 374.560 C 95.600 375.844,96.357 376.400,98.104 376.400 C 99.009 376.400,99.547 376.562,99.405 376.792 C 99.087 377.306,99.939 378.885,100.386 378.609 C 100.576 378.491,100.797 378.591,100.877 378.830 C 100.957 379.070,101.969 379.386,103.126 379.533 C 104.794 379.745,105.330 379.998,105.715 380.755 C 105.982 381.280,106.360 381.670,106.555 381.621 C 106.751 381.572,107.049 381.756,107.218 382.030 C 107.388 382.304,108.530 382.611,109.757 382.713 C 110.983 382.815,111.889 383.056,111.770 383.249 C 111.650 383.442,111.743 383.600,111.976 383.600 C 112.209 383.600,112.355 383.813,112.300 384.073 C 112.129 384.882,114.453 385.721,117.389 385.913 C 120.554 386.119,120.505 386.098,120.688 387.302 C 120.914 388.781,121.683 389.110,125.061 389.170 C 126.535 389.197,126.769 389.335,127.140 390.400 C 127.379 391.085,127.868 391.626,128.279 391.661 C 128.676 391.694,129.180 391.764,129.400 391.815 C 129.620 391.866,131.273 391.928,133.073 391.954 C 136.327 392.000,136.348 392.007,136.473 393.091 C 136.673 394.813,137.960 395.187,143.700 395.194 C 148.531 395.200,148.800 395.242,148.800 396.000 C 148.800 398.250,149.236 398.400,155.771 398.400 C 161.333 398.400,161.600 398.437,161.600 399.200 C 161.600 399.994,161.867 400.000,200.200 400.000 C 238.533 400.000,238.800 399.994,238.800 399.200 C 238.800 398.438,239.069 398.400,244.500 398.394 C 250.825 398.387,251.183 398.286,251.311 396.471 L 251.400 395.202 256.200 395.155 C 260.755 395.110,261.391 395.073,262.100 394.811 C 262.265 394.750,262.580 394.678,262.800 394.650 C 263.020 394.623,263.215 394.420,263.234 394.200 C 263.253 393.980,263.448 393.583,263.668 393.318 C 263.889 393.052,263.965 392.667,263.838 392.462 C 263.703 392.242,265.411 392.027,267.976 391.939 C 272.682 391.778,272.738 391.760,273.000 390.400 C 273.231 389.201,273.106 389.260,275.609 389.161 C 278.656 389.040,279.401 388.699,279.510 387.377 C 279.627 385.967,279.405 386.083,282.200 385.973 C 283.520 385.921,284.927 385.713,285.326 385.511 C 285.725 385.309,286.432 385.071,286.897 384.981 C 287.776 384.812,288.472 384.040,288.176 383.561 C 287.925 383.154,289.069 382.800,290.633 382.800 C 291.385 382.800,292.000 382.626,292.000 382.413 C 292.000 382.199,292.256 382.123,292.569 382.243 C 293.308 382.527,294.927 380.908,294.643 380.169 C 294.473 379.724,294.858 379.600,296.413 379.600 C 297.545 379.600,298.400 379.418,298.400 379.176 C 298.400 378.943,298.588 378.869,298.818 379.011 C 299.360 379.346,300.389 378.480,300.832 377.316 C 301.058 376.720,301.533 376.383,302.190 376.350 C 304.222 376.249,304.315 376.187,304.530 374.782 C 304.660 373.926,304.976 373.766,307.239 373.407 C 309.586 373.034,309.848 372.892,310.372 371.700 C 310.694 370.968,311.262 370.378,311.672 370.350 C 312.072 370.323,312.580 370.255,312.800 370.200 C 313.020 370.145,313.380 370.078,313.600 370.050 C 313.820 370.023,314.000 369.393,314.000 368.652 L 314.000 367.303 316.496 367.021 C 319.330 366.700,320.000 366.305,320.000 364.951 C 320.000 364.133,320.193 364.000,321.386 364.000 C 322.848 364.000,323.600 363.203,323.600 361.652 C 323.600 361.040,323.908 360.821,324.900 360.725 C 326.043 360.615,326.215 360.443,326.325 359.300 C 326.438 358.136,326.584 357.998,327.725 357.981 C 329.143 357.959,331.871 356.775,331.674 356.266 C 331.486 355.781,333.217 354.400,334.012 354.400 C 334.888 354.400,335.485 353.676,335.662 352.400 C 335.760 351.686,336.086 351.360,336.800 351.262 C 338.092 351.083,338.800 350.486,338.800 349.575 C 338.800 348.759,339.193 348.433,340.469 348.187 C 341.499 347.988,341.985 347.330,341.994 346.124 C 341.999 345.402,342.263 345.226,343.500 345.124 C 344.919 345.007,345.007 344.919,345.124 343.500 C 345.226 342.263,345.402 341.999,346.124 341.994 C 347.330 341.985,347.988 341.499,348.187 340.469 C 348.433 339.193,348.759 338.800,349.575 338.800 C 350.486 338.800,351.083 338.092,351.262 336.800 C 351.360 336.086,351.686 335.760,352.400 335.662 C 353.676 335.485,354.400 334.888,354.400 334.012 C 354.400 333.238,355.761 331.503,356.270 331.629 C 356.800 331.760,357.960 329.115,357.981 327.725 C 357.998 326.584,358.136 326.438,359.300 326.325 C 360.443 326.215,360.615 326.043,360.725 324.900 C 360.821 323.908,361.040 323.600,361.652 323.600 C 363.203 323.600,364.000 322.848,364.000 321.386 C 364.000 320.193,364.133 320.000,364.951 320.000 C 366.305 320.000,366.700 319.330,367.021 316.496 L 367.303 314.000 368.652 314.000 C 369.393 314.000,370.023 313.820,370.050 313.600 C 370.078 313.380,370.145 313.020,370.200 312.800 C 370.255 312.580,370.322 312.072,370.350 311.672 C 370.378 311.262,370.968 310.694,371.700 310.372 C 372.892 309.848,373.034 309.586,373.407 307.239 C 373.766 304.976,373.926 304.660,374.782 304.530 C 376.187 304.315,376.249 304.222,376.350 302.190 C 376.383 301.533,376.720 301.058,377.316 300.832 C 378.480 300.389,379.346 299.360,379.011 298.818 C 378.869 298.588,378.943 298.400,379.176 298.400 C 379.418 298.400,379.600 297.545,379.600 296.413 C 379.600 294.858,379.724 294.473,380.169 294.643 C 380.908 294.927,382.527 293.308,382.243 292.569 C 382.123 292.256,382.199 292.000,382.413 292.000 C 382.626 292.000,382.800 291.276,382.800 290.391 C 382.800 289.064,382.975 288.703,383.800 288.327 C 384.350 288.077,384.800 287.720,384.800 287.536 C 384.800 287.351,384.796 287.108,384.792 286.996 C 384.787 286.884,385.030 286.299,385.330 285.696 C 385.631 285.093,385.920 283.520,385.972 282.200 C 386.083 279.405,385.967 279.627,387.377 279.510 C 388.699 279.401,389.040 278.656,389.161 275.609 C 389.260 273.106,389.201 273.231,390.400 273.000 C 391.760 272.738,391.778 272.682,391.939 267.976 C 392.027 265.411,392.242 263.703,392.462 263.838 C 392.667 263.965,393.125 263.828,393.479 263.534 C 393.833 263.240,394.230 263.045,394.361 263.100 C 394.493 263.155,394.623 263.020,394.650 262.800 C 394.678 262.580,394.750 262.265,394.811 262.100 C 395.073 261.391,395.110 260.755,395.155 256.200 L 395.202 251.400 396.471 251.311 C 398.286 251.183,398.387 250.825,398.394 244.500 C 398.400 239.069,398.438 238.800,399.200 238.800 C 399.994 238.800,400.000 238.533,400.000 200.200 C 400.000 161.867,399.994 161.600,399.200 161.600 C 398.437 161.600,398.400 161.333,398.400 155.771 C 398.400 150.317,397.905 147.940,396.929 148.700 C 395.551 149.771,395.200 148.759,395.194 143.700 C 395.187 137.960,394.813 136.673,393.091 136.473 C 392.007 136.348,392.000 136.327,391.954 133.073 C 391.928 131.273,391.866 129.620,391.815 129.400 C 391.764 129.180,391.694 128.676,391.661 128.279 C 391.626 127.868,391.085 127.379,390.400 127.140 C 389.335 126.769,389.197 126.535,389.170 125.061 C 389.110 121.683,388.781 120.914,387.302 120.688 C 386.098 120.505,386.119 120.554,385.913 117.389 C 385.721 114.453,384.882 112.129,384.073 112.300 C 383.813 112.355,383.600 112.209,383.600 111.976 C 383.600 111.743,383.442 111.650,383.249 111.770 C 383.056 111.889,382.815 110.983,382.713 109.757 C 382.611 108.530,382.304 107.388,382.030 107.218 C 381.756 107.049,381.572 106.751,381.621 106.555 C 381.670 106.360,381.280 105.982,380.755 105.715 C 379.998 105.330,379.745 104.794,379.533 103.126 C 379.386 101.969,379.070 100.957,378.830 100.877 C 378.591 100.797,378.491 100.576,378.609 100.386 C 378.885 99.939,377.306 99.087,376.792 99.405 C 376.562 99.547,376.400 99.009,376.400 98.104 C 376.400 96.357,375.844 95.600,374.560 95.600 C 373.822 95.600,373.650 95.327,373.492 93.900 C 373.074 90.134,372.891 89.854,370.700 89.631 C 370.535 89.614,370.400 89.073,370.400 88.429 C 370.400 87.021,369.482 86.000,368.218 86.000 C 367.319 86.000,367.013 85.057,366.629 81.100 C 366.613 80.935,366.420 80.785,366.200 80.766 C 365.980 80.747,365.583 80.552,365.318 80.332 C 365.052 80.111,364.658 80.041,364.441 80.175 C 364.212 80.316,363.995 79.703,363.923 78.709 C 363.804 77.049,363.757 76.996,362.300 76.876 C 360.892 76.759,360.800 76.670,360.800 75.419 C 360.800 74.057,360.289 73.600,358.767 73.600 C 358.162 73.600,358.000 73.314,358.000 72.249 C 358.000 71.506,357.732 70.676,357.404 70.404 C 357.077 70.132,356.885 69.786,356.978 69.636 C 357.256 69.185,356.569 68.354,355.828 68.245 C 354.973 68.120,354.414 67.282,354.406 66.114 C 354.403 65.627,354.040 65.035,353.600 64.800 C 353.160 64.565,352.800 64.475,352.800 64.600 C 352.800 65.388,351.229 63.793,351.127 62.900 C 351.029 62.051,350.703 61.713,349.700 61.417 C 348.786 61.148,348.398 60.792,348.394 60.217 C 348.385 58.976,347.917 58.486,346.599 58.336 C 345.599 58.223,345.379 58.001,345.275 57.000 C 345.132 55.621,344.254 54.800,342.924 54.800 C 342.416 54.800,342.000 54.620,342.000 54.400 C 342.000 52.943,341.328 52.068,340.100 51.927 C 339.236 51.827,338.973 51.564,338.873 50.700 C 338.771 49.807,337.200 48.212,337.200 49.000 C 337.200 49.125,336.840 49.035,336.400 48.800 C 335.937 48.552,335.600 47.962,335.600 47.400 C 335.600 46.609,334.177 45.210,333.700 45.532 C 333.183 45.882,332.065 45.497,332.243 45.031 C 332.527 44.292,330.908 42.673,330.169 42.957 C 329.856 43.077,329.600 43.001,329.600 42.787 C 329.600 42.574,328.880 42.400,328.000 42.400 C 326.448 42.400,326.400 42.360,326.400 41.043 C 326.400 39.656,325.897 39.200,324.367 39.200 C 323.945 39.200,323.587 39.065,323.570 38.900 C 323.342 36.597,323.267 36.494,321.600 36.200 C 319.971 35.913,320.022 35.952,319.800 34.800 C 319.532 33.408,319.223 33.284,315.900 33.231 C 314.093 33.201,314.000 33.145,314.000 32.080 C 314.000 30.602,313.334 30.000,311.696 30.000 C 310.865 30.000,310.451 29.841,310.611 29.582 C 310.753 29.353,310.689 28.948,310.468 28.682 C 310.248 28.417,310.053 28.020,310.034 27.800 C 310.015 27.580,309.865 27.384,309.700 27.365 C 309.535 27.346,309.130 27.217,308.800 27.078 C 308.470 26.939,307.404 26.775,306.431 26.713 C 304.911 26.616,304.653 26.471,304.597 25.686 C 304.510 24.474,304.071 24.092,302.434 23.805 C 300.817 23.521,300.317 23.259,300.581 22.831 C 301.130 21.943,298.294 20.400,296.112 20.400 C 295.122 20.400,294.155 19.718,294.127 19.000 C 294.097 18.248,291.652 17.293,289.595 17.231 C 288.955 17.211,288.446 16.873,288.195 16.300 C 287.978 15.805,287.640 15.460,287.445 15.534 C 287.249 15.608,286.949 15.441,286.778 15.164 C 286.582 14.848,285.189 14.593,283.033 14.480 C 279.623 14.301,279.600 14.293,279.600 13.230 C 279.600 11.582,278.908 11.200,275.920 11.200 C 273.323 11.200,273.200 11.157,273.200 10.249 C 273.200 8.623,271.314 8.038,265.972 8.010 C 264.298 8.001,264.096 7.891,263.572 6.701 C 262.879 5.128,261.741 4.857,255.690 4.823 L 251.580 4.800 251.334 3.569 C 251.113 2.467,249.883 1.503,248.886 1.652 C 245.875 2.102,238.800 1.504,238.800 0.800 C 238.800 0.006,238.533 0.000,200.200 0.000 C 161.867 0.000,161.600 0.006,161.600 0.800 M326.552 86.800 C 329.420 89.839,329.249 83.465,329.118 182.818 C 328.985 283.649,329.336 273.650,325.869 275.225 C 324.261 275.955,322.420 275.983,275.400 275.997 C 248.079 276.006,226.356 276.167,226.045 276.364 C 224.614 277.270,224.853 288.045,226.410 292.800 C 226.878 294.230,227.364 296.804,227.489 298.521 C 227.651 300.736,227.941 301.925,228.488 302.621 L 229.258 303.600 237.367 303.600 C 246.469 303.600,246.243 303.529,247.131 306.646 C 247.808 309.021,247.722 311.602,246.938 312.469 C 246.304 313.169,244.395 313.200,202.284 313.200 C 149.636 313.200,153.600 313.638,153.600 307.818 C 153.600 303.381,153.129 303.600,162.680 303.600 C 172.339 303.600,172.135 303.688,172.518 299.363 C 172.653 297.843,173.062 295.520,173.428 294.200 C 173.793 292.880,174.335 290.720,174.632 289.400 C 175.329 286.301,175.361 278.542,174.682 277.200 L 174.177 276.200 126.188 275.992 C 72.918 275.761,76.174 275.945,73.874 273.041 L 72.600 271.432 72.600 179.687 L 72.600 87.943 74.287 86.369 L 75.973 84.796 200.413 84.898 L 324.854 85.000 326.552 86.800 M119.228 156.772 C 118.412 157.588,118.400 157.896,118.400 178.391 L 118.400 199.182 119.374 199.820 C 120.218 200.373,121.800 200.441,131.274 200.329 L 142.200 200.200 144.140 199.000 C 147.923 196.661,150.207 194.195,152.800 189.651 C 153.443 188.525,153.922 172.360,153.413 168.954 C 152.981 166.058,148.401 159.796,145.800 158.544 C 145.140 158.226,143.970 157.569,143.200 157.083 C 141.058 155.732,120.535 155.465,119.228 156.772 M159.862 156.731 C 158.878 157.819,158.846 198.789,159.829 199.771 C 160.374 200.317,162.162 200.400,173.340 200.400 C 188.377 200.400,188.000 200.486,188.000 197.039 C 188.000 193.714,187.962 193.700,178.561 193.538 C 168.555 193.366,169.200 193.773,169.200 187.631 C 169.200 181.643,168.731 182.000,176.610 182.000 C 184.279 182.000,184.800 181.754,184.800 178.136 C 184.800 174.913,184.527 174.800,176.749 174.800 C 168.693 174.800,169.200 175.190,169.200 169.000 C 169.200 162.749,168.514 163.200,178.026 163.200 C 187.456 163.200,188.000 163.002,188.000 159.571 C 188.000 155.897,188.420 156.000,173.462 156.000 C 161.436 156.000,160.477 156.052,159.862 156.731 M194.262 156.731 C 193.278 157.819,193.246 198.789,194.229 199.771 C 195.116 200.659,201.446 200.663,202.711 199.777 C 203.587 199.164,203.600 199.019,203.600 189.637 C 203.600 177.034,204.776 173.488,206.227 181.714 C 206.374 182.546,206.915 183.847,207.429 184.605 C 207.943 185.363,208.652 187.377,209.004 189.082 C 209.392 190.962,210.090 192.853,210.777 193.890 C 211.400 194.831,212.031 196.413,212.180 197.408 C 212.884 202.099,221.830 201.752,222.582 197.005 C 222.722 196.122,223.283 194.753,223.829 193.963 C 224.379 193.167,224.989 191.498,225.196 190.223 C 225.402 188.956,226.035 187.128,226.602 186.161 C 227.168 185.194,227.979 183.047,228.403 181.390 C 230.311 173.927,231.081 177.667,231.176 194.871 C 231.207 200.332,231.265 200.400,235.940 200.400 C 238.444 200.400,239.672 200.225,240.311 199.777 L 241.200 199.155 241.200 178.377 C 241.200 153.399,241.977 155.994,234.500 156.013 C 231.114 156.021,229.192 156.189,228.781 156.513 C 227.746 157.326,225.303 162.572,224.800 165.059 C 224.540 166.347,223.872 168.189,223.316 169.153 C 222.759 170.117,222.058 171.961,221.757 173.250 C 221.457 174.539,220.771 176.451,220.235 177.497 C 219.698 178.544,219.036 180.210,218.764 181.200 C 217.835 184.579,216.407 184.663,215.873 181.370 C 215.762 180.686,215.046 178.793,214.283 177.163 C 213.520 175.533,212.771 173.480,212.618 172.600 C 212.465 171.720,211.917 170.271,211.400 169.380 C 210.883 168.489,210.096 166.299,209.652 164.513 C 208.787 161.039,206.779 157.031,205.583 156.391 C 204.157 155.627,195.012 155.903,194.262 156.731 M256.813 156.615 C 256.050 156.956,255.330 157.376,255.213 157.549 C 255.096 157.722,254.065 158.367,252.923 158.983 C 251.189 159.917,250.669 160.475,249.781 162.351 C 249.196 163.588,248.591 164.690,248.436 164.800 C 247.051 165.782,246.800 167.047,246.770 173.189 C 246.754 176.605,246.619 180.210,246.470 181.200 C 245.971 184.521,247.247 191.600,248.344 191.600 C 248.517 191.600,249.145 192.635,249.739 193.900 C 250.686 195.917,251.198 196.446,253.909 198.200 L 257.000 200.200 264.231 200.200 L 271.461 200.200 274.431 198.150 C 276.508 196.716,277.761 195.501,278.600 194.108 C 279.260 193.012,280.190 191.527,280.666 190.807 C 281.811 189.078,282.182 184.143,281.889 174.536 C 281.675 167.540,281.463 166.320,280.246 165.103 C 279.938 164.795,279.214 163.611,278.637 162.473 C 277.948 161.113,277.069 160.093,276.079 159.501 C 275.249 159.006,274.217 158.377,273.785 158.105 C 270.794 156.219,270.758 156.211,264.400 156.102 C 259.490 156.017,257.911 156.124,256.813 156.615 M143.411 158.426 C 146.896 160.203,149.762 162.908,150.135 164.773 C 150.259 165.397,150.820 166.584,151.381 167.410 C 153.386 170.364,152.818 188.161,150.662 189.949 C 150.298 190.251,150.000 190.862,150.000 191.308 C 150.000 192.284,145.680 196.780,144.731 196.792 C 144.363 196.796,143.514 197.261,142.844 197.824 C 140.956 199.413,139.759 199.573,129.484 199.615 C 121.945 199.645,119.808 199.540,119.546 199.127 C 118.985 198.241,119.114 157.846,119.680 157.280 C 120.028 156.932,122.922 156.800,130.191 156.800 L 140.222 156.800 143.411 158.426 M186.803 157.403 C 187.372 158.089,187.108 160.546,186.370 161.436 C 185.995 161.888,184.283 162.000,177.780 162.000 L 169.658 162.000 168.829 163.054 C 168.092 163.991,168.000 164.656,168.000 169.038 C 168.000 175.872,167.640 175.604,176.422 175.307 L 183.162 175.079 183.640 176.129 C 183.971 176.855,184.007 177.705,183.758 178.889 L 183.397 180.600 176.520 180.709 L 169.643 180.819 168.822 181.863 C 167.615 183.397,167.591 191.772,168.788 193.294 L 169.576 194.296 177.704 194.093 C 185.185 193.906,185.890 193.948,186.559 194.616 C 187.391 195.449,187.251 198.120,186.327 199.044 C 185.598 199.773,161.037 199.894,160.167 199.173 C 159.268 198.426,159.326 158.331,160.229 157.429 C 161.156 156.501,186.035 156.478,186.803 157.403 M205.669 157.462 C 206.087 157.841,206.400 158.672,206.400 159.406 C 206.400 160.112,206.847 161.347,207.394 162.153 C 207.982 163.020,208.556 164.670,208.800 166.198 C 209.278 169.191,209.688 170.389,210.753 171.906 C 211.175 172.508,211.826 174.260,212.200 175.800 C 212.959 178.928,215.810 184.700,216.925 185.367 C 217.870 185.931,219.019 184.602,219.608 182.262 C 219.838 181.348,220.367 179.880,220.783 179.000 C 221.199 178.120,221.835 176.250,222.195 174.845 C 222.555 173.440,223.356 171.343,223.974 170.185 C 224.592 169.026,225.221 167.092,225.372 165.886 C 225.542 164.522,226.018 163.188,226.632 162.357 C 227.174 161.622,227.811 160.296,228.048 159.411 C 228.285 158.525,228.663 157.575,228.888 157.300 C 229.425 156.645,239.423 156.589,239.824 157.239 C 240.340 158.074,240.007 198.553,239.480 199.076 C 238.791 199.759,232.995 199.860,232.203 199.202 C 231.652 198.746,231.610 197.538,231.849 189.226 C 232.136 179.216,231.847 176.309,230.433 175.030 C 229.370 174.068,228.625 175.155,227.647 179.097 C 227.197 180.910,226.477 182.890,226.047 183.497 C 225.616 184.103,224.968 185.949,224.605 187.598 C 224.226 189.321,223.458 191.332,222.798 192.329 C 222.086 193.403,221.550 194.863,221.387 196.170 C 221.019 199.109,220.927 199.184,217.364 199.459 C 213.652 199.745,213.515 199.653,212.830 196.400 C 212.576 195.190,211.937 193.570,211.410 192.800 C 210.884 192.030,210.078 189.879,209.620 188.020 C 209.162 186.162,208.532 184.250,208.219 183.773 C 207.907 183.296,207.366 181.406,207.019 179.572 C 206.012 174.267,204.909 173.245,203.400 176.222 C 202.672 177.657,202.588 178.750,202.466 188.279 C 202.371 195.699,202.194 198.873,201.860 199.150 C 201.121 199.763,195.338 199.812,194.615 199.212 C 193.672 198.430,193.686 158.371,194.629 157.429 C 195.570 156.487,204.621 156.514,205.669 157.462 M271.835 158.056 C 272.696 158.637,274.160 159.537,275.090 160.056 C 276.452 160.817,276.980 161.464,277.819 163.400 C 278.390 164.720,279.250 166.219,279.729 166.732 C 281.397 168.515,281.226 188.520,279.531 189.934 C 279.093 190.300,278.273 191.500,277.711 192.600 C 276.580 194.810,275.693 195.717,273.600 196.807 C 272.830 197.207,271.900 197.894,271.534 198.332 C 270.197 199.933,258.496 200.135,256.786 198.587 C 256.308 198.154,254.909 197.260,253.677 196.600 C 251.842 195.617,251.216 194.992,250.218 193.149 C 249.548 191.910,248.640 190.388,248.200 189.766 C 247.449 188.705,247.400 187.991,247.400 178.218 L 247.400 167.800 248.400 166.410 C 248.950 165.645,249.850 164.130,250.400 163.042 C 251.376 161.113,253.667 159.264,257.400 157.395 C 259.657 156.265,269.875 156.733,271.835 158.056 M128.400 162.800 C 127.112 164.088,127.158 192.358,128.451 193.651 C 130.561 195.761,139.640 193.172,141.253 190.000 C 141.533 189.450,142.220 188.494,142.781 187.875 C 143.795 186.755,143.801 186.705,143.922 178.457 L 144.044 170.165 142.822 168.627 C 142.150 167.782,141.600 166.941,141.600 166.759 C 141.600 163.409,130.977 160.223,128.400 162.800 M261.262 162.805 C 260.747 163.023,259.406 164.102,258.283 165.201 L 256.241 167.201 255.847 174.427 C 255.219 185.934,256.264 191.600,259.013 191.600 C 259.268 191.600,259.795 191.952,260.184 192.382 C 262.067 194.463,266.349 193.784,269.575 190.895 L 271.725 188.969 272.133 182.403 C 272.420 177.798,272.413 174.578,272.109 171.619 L 271.677 167.400 269.394 165.016 C 266.961 162.477,263.963 161.662,261.262 162.805 M137.228 164.465 C 137.982 165.024,138.914 165.592,139.298 165.727 C 139.681 165.863,140.346 166.564,140.774 167.287 C 141.202 168.009,141.719 168.791,141.922 169.025 C 143.241 170.542,143.396 171.510,143.398 178.200 C 143.400 184.883,143.256 185.788,141.939 187.375 C 141.745 187.609,141.178 188.430,140.679 189.200 C 139.850 190.480,138.224 191.644,135.600 192.835 C 134.447 193.358,130.533 193.537,129.500 193.113 C 128.759 192.808,128.373 164.171,129.100 163.426 C 129.844 162.662,135.826 163.427,137.228 164.465 M265.916 164.375 C 270.911 166.981,271.892 169.708,271.458 179.779 C 271.092 188.274,270.287 190.121,266.122 192.031 C 263.347 193.303,259.623 191.511,257.748 188.000 C 256.851 186.321,256.715 172.368,257.565 169.286 C 258.560 165.681,263.195 162.955,265.916 164.375 " stroke="none" fill="#a6acd9" fill-rule="evenodd"></path><path id="path4" d="" stroke="none" fill="#00ffff" fill-rule="evenodd"></path></g></svg>